<svg xmlns="http://www.w3.org/2000/svg" viewBox="0 0 64 64" role="img" aria-labelledby="title desc">
  <title id="title">ScrolLess favicon</title>
  <desc id="desc">A teal and coral gradient circle with stylized S glyph.</desc>
  <defs>
    <linearGradient id="bg" x1="0%" y1="0%" x2="100%" y2="100%">
      <stop offset="0%" stop-color="#4db6ac" />
      <stop offset="100%" stop-color="#ff5f8a" />
    </linearGradient>
  </defs>
  <rect width="64" height="64" rx="14" fill="#121212" />
  <circle cx="32" cy="32" r="24" fill="url(#bg)" />
  <path d="M41.5 21.8c-2.2-2.2-5.3-3.4-8.8-3.4-6.6 0-11.5 3.8-11.5 9.1 0 10.1 15.5 7.2 15.5 12.9 0 1.9-1.8 3-4.7 3-2.8 0-5.5-1-7.6-2.8l-3.2 4.6c2.7 2.4 6.4 3.7 10.6 3.7 7.2 0 11.7-3.6 11.7-9.3 0-10.5-15.6-7.8-15.6-13.1 0-1.7 1.5-2.8 4.1-2.8 2.4 0 4.6.8 6.3 2.2l3.2-4.1z" fill="#121212" />
</svg>
